<?xml version="1.0" standalone="no"?>
<!DOCTYPE svg PUBLIC "-//W3C//DTD SVG 20010904//EN"
 "http://www.w3.org/TR/2001/REC-SVG-20010904/DTD/svg10.dtd">
<svg version="1.0" xmlns="http://www.w3.org/2000/svg"
 width="116.000000pt" height="20.000000pt" viewBox="0 0 116.000000 20.000000"
 preserveAspectRatio="xMidYMid meet">

<g transform="translate(0.000000,20.000000) scale(0.100000,-0.100000)"
fill="#000000" stroke="none">
<path d="M82 171 c-8 -23 -19 -31 -47 -37 l-36 -6 24 -27 c20 -20 24 -33 20
-59 l-6 -34 33 17 c32 16 35 16 63 0 l30 -18 -6 34 c-4 27 0 40 20 61 l25 27
-37 7 c-29 5 -39 13 -47 35 -13 37 -23 37 -36 0z"/>
<path d="M322 171 c-8 -23 -19 -31 -47 -37 l-36 -6 24 -27 c20 -20 24 -33 20
-59 l-6 -34 33 17 c32 16 35 16 63 0 l30 -18 -6 34 c-4 27 0 40 20 61 l25 27
-37 7 c-29 5 -39 13 -47 35 -13 37 -23 37 -36 0z"/>
<path d="M562 171 c-8 -23 -19 -31 -47 -37 l-36 -6 24 -27 c20 -20 24 -33 20
-59 l-6 -34 33 17 c32 16 35 16 63 0 l30 -18 -6 34 c-4 27 0 40 20 61 l25 27
-37 7 c-29 5 -39 13 -47 35 -13 37 -23 37 -36 0z"/>
<path d="M802 171 c-8 -23 -19 -31 -47 -37 l-36 -6 24 -27 c20 -20 24 -33 20
-59 l-6 -34 33 17 c32 16 35 16 63 0 l30 -18 -6 34 c-4 27 0 40 20 61 l25 27
-37 7 c-29 5 -39 13 -47 35 -13 37 -23 37 -36 0z"/>
<path d="M1042 171 c-8 -23 -19 -31 -47 -37 l-36 -6 24 -27 c20 -20 24 -33 20
-59 l-6 -34 33 17 c32 16 35 16 63 0 l30 -18 -6 34 c-4 27 0 40 20 61 l25 27
-37 7 c-29 5 -39 13 -47 35 -13 37 -23 37 -36 0z"/>
</g>
</svg>
